<svg xmlns="http://www.w3.org/2000/svg" viewBox="0 0 48 48"><defs><clipPath id="a"><path fill="none" d="M.48.47h47.04v47.07H.48z"/></clipPath></defs><g clip-path="url(#a)"><path d="M47.52 23.86c0-.06-.04-.14-.13-.24-.09-.1-.17-.14-.26-.14l-18.35-1.44L40.75 8.05s.04-.05.05-.1c.01-.04.02-.13.02-.26 0-.08 0-.14-.02-.18a.218.218 0 0 0-.05-.08l-.19-.19s-.05-.04-.08-.05a.625.625 0 0 0-.18-.02c-.11 0-.18 0-.22.02-.04.01-.08.03-.1.05L25.96 19.21 24.51.85c0-.09-.04-.17-.13-.26-.09-.08-.17-.13-.26-.13h-.26c-.09 0-.17.04-.26.13s-.13.17-.13.26L22.03 19.2 8.02 7.24s-.05-.04-.1-.05c-.04-.01-.12-.02-.23-.02-.08 0-.14 0-.18.02-.03.01-.06.03-.08.05l-.19.19s-.04.05-.05.08c-.01.03-.02.09-.02.18 0 .13 0 .22.02.26.01.04.03.08.05.1l11.94 13.99L.87 23.47c-.11 0-.2.04-.27.13-.08.09-.11.17-.11.26v.26c0 .13.04.23.11.3.07.08.17.11.27.11l18.32 1.44L7.25 39.96s-.08.09-.1.14a.484.484 0 0 0 0 .33c.02.05.05.09.1.11l.19.22s.06.05.13.08.11.05.13.05c.04 0 .1-.02.18-.05.07-.03.12-.06.14-.08l14.02-11.97 1.44 18.32c0 .13.04.23.11.31.08.08.17.11.27.11h.26c.11 0 .2-.04.27-.13.08-.09.11-.18.11-.29l1.44-18.32 14.02 11.97s.05.04.1.05c.04.01.12.02.22.02.08 0 .14 0 .18-.02.03-.01.06-.03.08-.05l.19-.22s.04-.05.05-.08c.01-.03.02-.09.02-.18 0-.11 0-.18-.02-.22a.313.313 0 0 0-.05-.1L28.76 25.97l18.35-1.44c.08 0 .17-.05.26-.15.08-.1.13-.19.13-.27v-.26Z" fill="#231f20"/></g></svg>