<svg version="1.1" id="Layer_1" xmlns="http://www.w3.org/2000/svg" x="0" y="0" viewBox="0 0 824 210" xml:space="preserve"><path class="st0" d="M108.3 173.9c-5.8 4.3-13.3 6.8-24.7 6.8H63.1v-71.8h20.5c11.4 0 18.9 2.5 24.7 6.8 8.8 6.6 14.3 17.2 14.3 29.1-.1 12-5.5 22.6-14.3 29.1zm-3.2-53c-5.1-4-11.8-6.1-21.8-6.1H69.2v60.1h14.1c10 0 16.7-2.1 21.8-6.1 7.1-5.5 11.3-14.4 11.3-24s-4.2-18.4-11.3-23.9zM173.3 173.2c-3.5 4.4-10.2 8.6-19.1 8.6-13.1 0-23.5-9.8-23.5-24.4 0-13.4 9.1-24.4 22.4-24.4 12.5 0 21.7 9.8 21.7 22.9 0 .4 0 1.1-.1 2.1h-38.1c.4 10 6.9 18.4 17.6 18.4 6.2 0 11.3-2.5 15-7l4.1 3.8zm-36.4-20.6h31.9c-1.2-8.2-7.6-14.1-15.7-14.1-8.3-.1-14.5 5.9-16.2 14.1zM187.1 170.6c4 3.4 8.9 5.6 14.2 5.6 5.8 0 10.8-3.3 10.8-8.2 0-12-27-5.4-27-21.4 0-8.5 8-13.6 15.9-13.6 6.4 0 11.6 2.2 15.1 4.5l-3.1 4.8c-4-2.6-6.9-3.8-11.7-3.8-4.9 0-10.4 2.6-10.4 8 0 10.4 27 4.8 27 21.2 0 8.7-7.4 14.1-16.2 14.1-7.8 0-14-2.9-18.2-6.7l3.6-4.5zM234.6 112.6c2.9 0 5.2 2.4 5.2 5.2 0 2.9-2.4 5.1-5.2 5.1-2.9 0-5.1-2.3-5.1-5.1 0-2.9 2.3-5.2 5.1-5.2zm-2.8 21.3h5.8v46.8h-5.8v-46.8zM294.7 195.6c-3.4 6.4-10.1 10.8-20.3 10.8-8.9 0-16.5-4.1-21.2-11.2l4.6-3.4c3.5 5.5 9.2 9 16.7 9 7.9 0 12.7-3.4 15.1-8 1.4-2.9 1.8-6.3 1.8-12.1V174c-3.5 4.5-9.3 7.7-16.6 7.7-4.4 0-9.3-1.1-13.9-4.4-6.2-4.3-9.9-11.6-9.9-20 0-7.8 3.4-14.7 8.7-19.2 3.9-3.2 9.2-5.2 14.9-5.2 6.8 0 12.9 2.8 17.1 7.5v-6.5h5.6v46.6c0 6.9-.6 11.4-2.6 15.1zm-3.3-47.7c-2.1-3.5-8.2-9.4-16.8-9.4-3.9 0-8 1.3-11.3 4-4.1 3.4-6.6 8.8-6.6 14.9 0 6.5 2.9 12.2 7.4 15.4 3 2 6.6 3.5 10.6 3.5 6.9 0 13-3.9 16.7-10.3v-18.1zM320.4 140.6c3.8-5 9.9-7.6 16.5-7.6 6.8 0 12.8 2.8 16.6 7.9 2.6 3.4 4 7.3 4 15v24.9h-5.8v-24.6c0-6.2-1-9.1-2.7-11.5-2.7-3.9-7.1-6.3-12.2-6.3-6.8 0-12.6 3.6-16.2 9.7v32.5h-5.8v-46.8h5.6v6.8zM408.3 114.8v23.4h25.6v5.8h-25.6v30.9h33.8v5.8h-40v-71.8h39v5.8l-32.8.1zM460.6 140.6c3.8-5 9.9-7.6 16.5-7.6 6.8 0 12.8 2.8 16.6 7.9 2.6 3.4 4 7.3 4 15v24.9h-5.8v-24.6c0-6.2-1-9.1-2.7-11.5-2.7-3.9-7.1-6.3-12.2-6.3-6.8 0-12.6 3.6-16.2 9.7v32.5H455v-46.8h5.6v6.8zM588.2 180.8l-27.7-36.7h-12.1v36.7h-6.2V109h24.5c6.6 0 10.8 1.7 13.9 4.6 3.5 3.2 5.6 7.8 5.6 12.9 0 5.1-2.2 9.7-5.6 12.9-3 2.8-6.9 4.4-12.8 4.6l27.7 36.7-7.3.1zm-21.7-42.6c5.1 0 7.9-1.1 10-3.1 2.4-2.2 3.8-5.2 3.8-8.6 0-3.4-1.4-6.5-3.8-8.6-2-1.9-4.8-3.1-10-3.1h-18.1v23.4h18.1zM623.3 181.8c-13.9 0-24.1-11-24.1-24.4s10.2-24.4 24.1-24.4c13.9 0 24.1 11 24.1 24.4s-10.1 24.4-24.1 24.4zm0-43.4c-10.6 0-18.3 8.4-18.3 18.9s7.7 18.9 18.3 18.9 18.3-8.4 18.3-18.9c0-10.4-7.7-18.9-18.3-18.9zM701.5 195.6c-3.4 6.4-10.1 10.8-20.3 10.8-8.9 0-16.5-4.1-21.2-11.2l4.6-3.4c3.5 5.5 9.2 9 16.7 9 7.9 0 12.7-3.4 15.1-8 1.4-2.9 1.8-6.3 1.8-12.1V174c-3.5 4.5-9.3 7.7-16.6 7.7-4.4 0-9.3-1.1-13.9-4.4-6.2-4.3-9.9-11.6-9.9-20 0-7.8 3.4-14.7 8.7-19.2 3.9-3.2 9.2-5.2 14.9-5.2 6.8 0 12.9 2.8 17.1 7.5v-6.5h5.6v46.6c-.1 6.9-.7 11.4-2.6 15.1zm-3.3-47.7c-2.1-3.5-8.2-9.4-16.8-9.4-3.9 0-8 1.3-11.3 4-4.1 3.4-6.6 8.8-6.6 14.9 0 6.5 2.9 12.2 7.4 15.4 3 2 6.6 3.5 10.6 3.5 6.9 0 13-3.9 16.7-10.3v-18.1zM756.5 174.4c-3.3 4.3-9.3 7.4-15.8 7.4-7.7 0-14.2-3.7-17.5-9.6-1.7-3.2-2.8-7-2.8-13.2v-24.9h5.8v24c0 6.6 1 9.6 2.7 12.1 2.5 3.7 6.7 6.2 11.8 6.2 6.4 0 12.5-3.9 15.6-9.7v-32.5h5.8V181h-5.6v-6.6zM818.1 173.2c-3.5 4.4-10.2 8.6-19.1 8.6-13.1 0-23.5-9.8-23.5-24.4 0-13.4 9.1-24.4 22.4-24.4 12.5 0 21.7 9.8 21.7 22.9 0 .4 0 1.1-.1 2.1h-38.2c.4 10 6.9 18.4 17.6 18.4 6.2 0 11.3-2.5 15-7l4.2 3.8zm-36.5-20.6h31.9c-1.2-8.2-7.6-14.1-15.7-14.1-8.3-.1-14.4 5.9-16.2 14.1zM388.8 167.4l.2-.7-1 .4z"/><path class="st0" d="m192.8 158.8-.8.1c.4 0 .6 0 .8-.1zM198.5 159.4l.2-.4c-.3.2-.5.2-.2.4zM303.9 159.4c-1.1-.8-2.2-2.1-2.2-1.2l.3.9c.8 0 1.4.1 1.9.3zM245.3 159.2l.3.3c.3-.3.6-.5.8-.8-.3.2-.7.2-1.1.5zM244.1 162.7l-1.4-.7c.3.2.7.4 1.4.7zM161.8 156.8l-1 .8c1.5.1.9-.4 1-.8zM353.3 164.4c-1-.4-1.7-.6-2.4-.8 1.2.6 2.1 1.5 2.4.8zM195.9 149.8c-.5.1-.7.3-.7.5.5-.1.8-.4.7-.5zM348.1 163.4c.2.1.3.2.5.3.7-.1 1.5-.1 2.3 0-.8-.5-1.8-.8-2.8-.3zM49.8 145.4c-.1 0-.2-.1-.2-.1 0 .1.1.1.2.1zM374.9 165.8c.7 0 .1-.1 0 0zM378.1 169.4c-.2.1-.3.2-.3.4.1-.1.2-.2.3-.4zM340.3 168.1s-.1 0 0 0c.1.1.1.1 0 0zM376 166.2c-.3-.1-.6-.3-.9-.3.1 0 .4.2.9.3zM375.8 165.9c.2.1.4.1.6.1.2-.1.1-.2-.6-.1z"/><path class="st0" d="M373.9 165.7c.4 0 .8.1 1.2.2-.1-.1-.2-.1-.2-.2-.2.1-.5.1-1 0zM110.1 148.8l-.1-.1c-.8.2-.5.2.1.1zM283.9 166.7c.1 0 .1 0 0 0 .1 0 .1-.1 0 0zM281.3 167.1c1.2-1 1.8-.8 2.7-.5l-.6-2.6-2.1 3.1z"/><path class="st0" d="M387.1 167.9c-.8-1.3-.5.1-1.8-1.5 1.1 1.9-5.2-.6-3.4 1.5-1.3-1.8-2.5-.9-4.3-2.5 0 .4.6.8-1.1.5-.1.1-.3.2-.4.3h-.1s.1 0 .1.1c-.1.1-.1.1 0 0 .4.2.7.5.8.7-.9.8-3.7.6-4.6.9-1-.3.5-.4 0-.9l-1.4.6c-.1-.9-2.6-1.7-.1-2l-2.2-.2c-1.2-.6-3-1-4.1-.7-1-.3-2.7.7-1.7.1l-3.4.2v-.2c-3.3-.4-7 .8-10.7-1.1-1.1.1-2.3.3-4.2-.1l-.3-.8c-1.5.1-4.3-1.2-5-.4-1.4-2.2-7-1.1-9.5-1.7l-.2 1c-1.7-.2-3.4-.1-5.7.1v.9c-1.9.6-4.7-1.1-7.7-1.3.2-.3 1-.2 1.5.1-3.3-2.4-7.6.8-10.7-1-.8.2-1.4.1-1.9-.2h.2-.3c-.3-.2-.7-.4-1.1-.6.3.2.6.5.9.6-.6 0-1.6 0-2.5.1l-.3-1h-.2c-.9-.4-.8.4-.4 1.2-.5.1-.9.3-1.3.5-.6-1.6-2.5.3-3.3-1.5-.7.7-4.7.2-5.3 1.8 0-.2-.3-.4.2-.3-1-.3-2-.6-3-.2l-.3-1.3-2.4 1.4c-1.3-.9-1.8-1.4-.4-2.2-3.4 1.1-2.7.3-5.6 1.5l.2-.8c-1-.1-2.7.8-3.2.1-2.1-1.7-10.9-1.2-16.4-3.2.9 2.4-2.5-1.3-2.9.5-.3-.6-1-1-.1-1.4-2.9.3-4.3-1.3-6.4 0-.3-.6.7-.7.4-1.1-.2.1-1 .4-1.2 0-.3-.4.5-.4.9-.6-3-.2-3.4 1.5-3.8 3-1.4-.9-2.2-.9-3.4.1-.5-.6-1.3-1.2.6-1.2-1-.2-6.2-1.4-6.5-.1-.3-.4-1.4-.2-1.7-.1-2.3-.3-2.5-.4-4.8-.5l.6.3c-1 1.5-1.9.2-3.8.2l.1-.2c-4.1-1.5-1.9.4-5.9-1.3l.1 1c-.6 2-3.6-1.6-6-1l.8.6c-1.4.6-3.4-3.1-4.7-3.5-.3-.2.5-.2.9-.3-3.3-1.5-.6 1.2-3.2 1.3-.4-.7.8-1.7-.9-2-.8-.6-5.2 1.7-7.5.2.5.6.9 1.1-.3 1.4-1.9 0-4.8-2.4-6.6-1-.2-.2-.3-.3-.3-.4-1.4.3-4.6.3-5.6 1.1-1-3.4-8.9.8-8.6-2.3l-4.3-.2.1-.3c-2.7-.5-3.8.2-4.8.8-.6-.3-.1-.5-.1-.7-4-1-4.4-.9-7.9.3l-.3-1c-1 .5-5.7-2.1-9.7-1.3 0-.1.1-.3.5-.4-4.6.7-10.4-3.8-12.4-.3l-3 .6c3.8.6-.7 1.5.8 2.3-1.5.1-3.8-1.5-1.9-1.5l.3.2c.9-1.8-4.7-1.1-4.4-2.4-7.5-.6-14.7-2.3-21.7-3.1l.7 1.5-2.4-.3c-.6-.4-.8-1.2 1-1-.8-.9-3 .4-3.1.7-3.4-.9 1.5-1.6.5-1.7h-1.4l.3.2c-1.2.5-1.4 1.1-3.5.8-1.3-.4-.6-1-1.1-1.1 0-.1-.2-.2-.8-.1l-3.1-.4 1.1 1.3c-1.4.4-2.9-.3-1.6 1.1-1.9-2.2-11.4-1.8-12.6-2.6-2 .7-3.9.5-6.2.1.6.3.8 1.6-1.2 1.3 1-2.6-3.6-1.5-5-3.6 1.3 1.4-5.8-.2-3.6 1.8-1.7-.4 0-1-1.2-1.8-4.1.7-8.7-1.5-13.7-1.6-.1.3.7 1-.4 1.4l-2.4-2c-1 .1-1.1 1.9-2.8.6.2.3.6.8-.1.9-6.4-1.8-13.2-1.4-19.9-2.3.3.4-1 3.2-1 3.2s8 0 3.5.9c-3.1.6.5 3.1.5 3.1s3.4.7 4.8-.8c1.4 2.1 8.6.8 9.5 3.1 1.9.2-.4-1.1 1.4-1l.4.6.5-.7c1.2.2 1.8 1 1.8 1.5-.3-.1-.9.1-1.2.1 1.5.8 4.5.2 5.1.5l-1.8-.5c5.2-.1 11.4 1.3 16.5.6l-.3-.5c3.9-.5 3 .8 7.2.8l-.2.1c.9-.4 2-.5 3.1-.3-1.1.4 1.9 1.2.4 1.6 4.2-.5 2.1-.5 5-1.9l.6.8c1-.6 1.1-.9 3.2-.9-1.8.5 1.2 1.3-.8 1.9 4.2 2 6.6-1 8.4 1.5 2.2-1.9-3.7-1.5-2.5-1.8-.9-.8 1.8-1.4 3.2-1 1.4.2 2.1 2.8 5.6 3.1-.3 0-.4.1-.7.1 1.3.6 2.6-.5 4.2.5 1-1.2 2.1.3 2.5-1.3l-3.3.1c1.9-.2 3.8-1.9 6.7-.7-.3.3-1.2.6-1.8.8.8.5 1.7-.1 2.6.4-.4 1.6-3.9 0-6 1 .9.8 3.8-.8 2.7.8 1.6-2 3.4.6 6-.8l-.2.9c.4-.1 1.2-.5 1.9-.4l-1.4 1.1c2-.9 3.6 1.3 5.5.9-3.9-.3-.8-1.2-2.3-2.1 4.7-.8 2.7 2.5 7.4 2.7-.8-.2-2-.8-1.1-1.1 1 .3 2.3.8 2.9 1.3 3.6.1-.5-1 1.1-1.5 1.1 1.3 1.8-.3 3.4-.5l-.1 1c4 1 1.3-1.9 4.8-.8l-1.7 1.2 1.9-.2-.5 1.1c2.1-.6 2.8-.3 4.7.2-.4-.7.4-1.7 2.2-1.6 1.2.7-.8.9 1.8 1-.6.5-1.3 1.2-2.3.3-.1.3-.6.6-.8.8 1.2.8 3.3.5 4.2.5-.3-.1-.8-.2-1-.3l3.8-1c.5.4.1.7-.4.9.8 0 1.3-.4 2.4-.4-.4.8-.4 1.6-1.9 1.8l3.6-.5c.2.4 1.7 1.1 1.2 1.3 1.9.6 4.9-1.1 7.4-.2.1-.1.4-.3 1-.3 2.4.4 4.4 1.6 7.4.8l1.5 1.6c2.3-.1-2-2 1.8-2.1 2.7-.2.9 1.3 1.8 1.8 1.4-.6 3.8-1.8 6.1-.4-.8.2-1.4-.1-2.2 0l1.8 1c-2.4 1.1-3.9.5-2.3 1.7.5-2.7 7.2.4 7.7-2.3l1.2.7c-.3-.1-.4.1-.8 0 2.2 1.5 1.9-1.8 5-1.1 1 .3 1.8.8 1 1l2.4-.4c.7.1.5.6-.2.5l3.6.1v.1c.6-.4 1.8-.9 2.4-1.1.9.5-.5.2-.3.6l2.1-.5c.7.8-1 1.3-2.3 1.1 1.6 2.9 1.7-.5 5.6 1.4l-1.9.2c1.1 1.7 2.6 1.2 4.7 2.4-.5-.5-4.1-2.8-1.8-3.3.6.3 1.4.4 2.6 0-.1 1 1.1.8 2.5.9l-.2 1.3c1.6-.2 1.5-.9 2.5-1.4 1.7.3 2 1.3 2.3 2.2 2.7.5-1.8-1.8 1.5-1.7 2.3.7 3.9.3 6.7-.2 1.6.6-.4.8.2 1.2l1.5-.9c.3.1.2.4.1.5 1.2-.3.2-1.3 2.1-1.4.6-1.4 3.7 2.4 6.2 1 .5.4-.4.8-.2 1.3 3.3-.7 2.8-.5 5.6-1.7l2.2 1c-1.6-1.1.7-2 2.6-2.8-.5-.5-1-1-1.3-1.2l3-.4c.3.2 0 .7-.5 1.1l.6-.3c1 .6.4 1.3-.4 1.9-.3-.3-.7-.6-1-.9-.8.7-1.6 1.5-1.5 2.3.2-.1.6-.2 1-.3-.2.2-.4.4-.3.5s.4-.1.9-.4l.5 1.5.2-.5 3.8 1.3c2.9-1.2 5.5-3.1 9.9-3.2-1.2.9-.4 1.7-.6 2.9-1.1-1.4-3.4.2-5.7-.2 1.2.2.9.8.5 1l4.2-.8c-.2 1 .8.8 1.8 1.4-.6-2.1 3.1-1 4.8-1.5 0 .7-.4 1.3-2.4 1 2.1 1.7 3.1-2.1 5.1-.6-.5 0-.7-.2-1 .2 1.2-.5 4 .2 3.2.8h-.5c3.2.5 9.9 1 10.6-.7 0 .2-.6 2-.8 2.3l6.3-5.2c-.7 1.4 1 5.1-1.8 5.6.8.3 1.7.6 3.4.3-.5-.3-1.1-2.2-.4-2.3 1.8 1.8 1.3 1 3.6 2.6-.8-.4.3-2.6 1.6-2.4-.2.3-.1 2.3-.6 2.5l3.3-1.9c-.8.3-.3 1.9.3 2.6-.3-.5 2.7.3 3.5.2l-1.3-.6c3.5.7 3.8-2.8 7.3-2.4-.5.4-1.3 2.8.4 3.2.9-1.1 4.1-5.2 7.3-5.8l.5.7 2.4-.5c-1.6 1.6-6.1 4.8-8.5 6 1.3.6.3.8 2.3.9.6.7-1.2.8-1.7.8l4.6.8c-.1-1.4 3.6-1 3.6-2.1l-5.1.9c-.1-1.4 3.2-3.5 6.5-3 .8.6-.8 2.3-.8 2.8.5-.4 3.2-.6 3.4-.2l-1.4.6c1.8.7 3.1-1.5 5.2 0 .7.2 2.1 1.9 2.3 1.2-1.1-1.6-.9-6.4.1-7.5.3.1 3.8 1.8 4.6 2.7 1.1 1.3-2.1 2.7-1.2 3.8.1-.4.8-.7 1.1-.9.8.4-.4 1.1 1.3 1.1.4-1.3 3.5.4.9-1.1 1.7-.2 1.8.4 3.7.6-.5-.9 2.1-2.8 3.8-3.1-.1.3.2.8.4 1 3.4.4 5.2 1.2 8.4 1.6.3.4 1.8.9 1.1 1.4.5-.2 1-.6 1.9-.6 1.8 1.4-2.2 0-.9 1.5.2-.8 2.7-.8 4.1-1.2-.3-1.3-3.2-.5-4.7-.2.2-1.7 2.8-3.2 6.2-3.7 2.7-.2 1.1 1.2 1.5 1 5 .8 4.5-2.5 8.6-.9 1.5 1.2-.1 2.1.2 2.9-2.2.2-3.3-1-4.7-1.1l1.8.7c-.7.3-2.2.4-3 0 1.3 1.1 8.4 1 12.2 2.2.7-.3 1.9-.6 1.4-1h-1.2c-1-1 2.4-1 .9-1.5 1.7-.5 3.6-1.2 5.9-.5l.3 1.3c0-.4-1.4-.9-2.1-.6 1-.5 3.4 2 4.6.5l-1.5-1c1.7-.7 3.9-1.9 5.9-1.4zm-182.2-8.1c.7-1 1.1-.5 2-.1-.5.2-1.7.7-2 .1z"/><path class="st0" d="M249.1 161.4c-.4.3-1 .1-1.7-.4.6-.1 1.1.1 1.7.4zM366.8 165.8s-.1 0 0 0c-1.2-.4-.8-.4 0 0zM369.2 166.4c.3-.1.3-.2.2-.4-.2.2-.8.2-1.4.1.2.3.5.5 1.2.3zM102.9 141.6l.5.3c-1.2.2-.8-.1-.5-.3zM244.3 162.2c-.1-.2-.2-.4-.2-.5-.2.2-.3.4.2.5zM162 156.6c-.1 0-.2.1-.2.1l.2-.1zM330 170.9c-.5-.2-.8-.4-.9-.6-.1.3.2.5.9.6zM382.5 166.1l-1.6.1c.8 0 1 .3 1.4.5 0-.3-.3-.8.2-.6zM383.7 169.4c0 .8 1.1.6 2.2.6h-.2c.4-1.1-.8-.9-2-.6zM386.1 169.9c.3 0 .7 0 1 .1.2-.4-.3-.1-1-.1zM372.4 166.2c.5.3.4-1 .7-.6.7-1-3.6.8-.7.6zM384.3 172.2l-.3-1.1-.7.8zM375.6 170.6l1.8.4c0-.2.2-.2.5-.3-1.1-.1-2.3-.5-2.3-.1z"/><path class="st0" d="M377.9 170.7c.6.1 1.1.1 1.4 0h-1.4zM381.9 172.2l-.5-.3-1.3-.1zM356.5 168.6l-2 .1c-.2.3.3.6 1 .5.6-.3 1.3-.3 1-.6zM362.1 171.9c-.5-.3-.5-.5-.8-.8l-.2 1.2 1-.4zM356.4 171.6c-.2.3-2.9.7-.4.9.2-.3 2.2-.4.4-.9zM327.4 167.2h.5l.1-2zM301.1 169.7c2.3.7.7-1.2 2.7-.4.6-.4-1.7-.7-1.1-1-1.4.4-2.1-.1-1.6 1.4zM302.8 168.2c.2-.1.5-.1.7-.2-.4.1-.6.2-.7.2zM210.8 162.8l.1-.3c-.2-.4-.5-.4-1.2-.5l1.1.8zM190.8 159.9h.4l-.6-1.2zM173.9 159.8c.7.1 1.5-.1 2.2 0-1.6.1-2.3-1.6-2.2 0zM17.1 53.2c-4 .6-7.7 1.3-11.2 2.2h-.3c-.5 0-1-.4-1.1-1-.1-.1-.1-.2-.1-.3 0-.6.4-1.1 1-1.1 3.8-1 7.9-1.9 12.2-2.5C23.2 24.9 27.4 11.2 30.8 6c.2-.4.7-1 1-1.4.6-.7 1.4-1 2-1h.3c4.7 1 6.7 21 9.2 46.2 4.8.6 9.1 1.7 12.7 3.3.4.2.6.6.6 1.1 0 .2-.1.4-.1.6-.3.4-.6.6-1.1.6-.2 0-.4 0-.5-.1-3.1-1.5-7.1-2.6-11.4-3 1.3 13.2 2.8 27.9 4.7 41.9v.2c0 .6-.5 1.1-1 1.2H47c-.1.2-.3.3-.5.3h-.3c-.6 0-1.1-.4-1.1-1-2-9.3-3.5-24.5-5.1-39.6l-.3-3.3h-5.5c-4.9 0-10 .3-15 .9-1.7 8.5-3.7 18.1-5.9 29.1.1.1.2.2.2.5.2.7.3.8.4.9.4.3.7.5.7 1 0 .2-.1.4-.1.6-.1.4-.4.8-.9 1.7-.4.7-.9 1.6-1.7 3-.3.4-.6.6-1.1.6-.2 0-.4-.1-.6-.3-.5-.2-.6-.6-.6-1.1l.1-.3c2.9-13.6 5.2-25.2 7.4-35.4zm2.9-2.8c4.8-.6 9.7-1 14.4-1 1.7 0 3.5.1 5.2.1-1.2-11.7-2.4-23.1-3.9-31.2-.9-4.7-1.7-8.3-2.6-9.9-.4-.6-.6-1.1-.9-1.1-.2 0-.5.2-.6.6C29 12.2 25.4 25.2 20 50.4zM62.1 65.7c-.1-1.2-.1-3-.1-5.2 0-3 .1-6.6.3-9.9l.4-4.3c-.4-.2-.6-.6-.6-1.1V45c.4-2.4 1.4-3.9 2.3-4.4.4-.2.7-.4 1.1-.4.5 0 .9.1 1.3.5s.6.8.6 1.3l-.1.6C66.6 46.4 66 51 65.7 55c0 .4 0 .6-.1.9 1.1-2.7 2.5-5.4 4.1-7.7 2.7-3.7 6-6.3 9.6-6.3h.6c.5 0 .9.1 1.4.2.6.2.9.6.9 1.1l-.1.4c-.1.6-.6.9-1.1.9l-1.3-.3h-.3c-2.9 0-5.5 2.1-7.8 5.3-2.4 3.5-4.3 8-5.3 11.9-.5 1.6-.7 3-.8 4.3-.1.8-.8 1.3-1.6 1.3-.9.1-1.8-.4-1.8-1.3zM115.8 70.7c-1.7-.2-2.8-2.2-2.8-7.3 0-1.2 0-2.6.2-4.1.6-7.7 1.6-16.3 2.8-24-7.7 15.5-15.8 24-22.3 27.6-2.7 1.3-5 1.9-7 1.9H86c-2.3-.3-4.1-1.4-5.2-3.2-.8-1.3-1.2-2.9-1.2-4.8 0-2.2.6-4.9 1.9-7.8 1.7-3.9 5.3-7.6 8.6-9.2 1.3-.6 2.5-.9 3.6-.9 1.3.1 2.4.6 3.2 1.7.7 1.1 1.2 2.8 1.2 5 0 .7-.1 1.7-.2 2.6-.1.5-.4.7-.6.9-.4.3-.7.4-1.1.4-.3 0-.5-.1-.6-.2-.5-.2-.7-.6-.8-1-.1-.3-.1-.6-.1-.9 0-1 .6-2.3 1.1-2.5-.1-1.3-.4-2.2-.7-2.9l-.6-.6h-.1c-2.7 0-6.3 4.4-8.4 9.1-.7 1.7-1.3 3.3-1.6 5-.2.6-.3 1.4-.3 1.9 0 .7.1 1.5.4 2 .6 1.8 2.1 2.5 3.8 2.5 1.6 0 3.1-.6 4.3-1.2 7.2-3.9 16.6-14.4 25.1-34.7l.6-3.1c.4-4.9 1.4-8.1 2.4-9.6.4-.6.7-.9 1.2-1.1.2-.1.5-.2.7-.2.4 0 .6.1.9.3l.2.1c.5.3.7.9.8 1.7 0 .2 0 .4-.1.6-3.1 11.3-6.9 33.1-7.5 45.3l-.2 4.4c0 1.7.1 3.2.5 3.2 1.5-.6 8.5-12.7 9.8-15 2.1-3.7 4.2-7.3 6.1-9.8.8-1.1 2.7-3.9 4.3-3.9h.3c1 .2 1.7 1.5 1.7 4.4 0 1.7-.3 4.2-.7 7.4-.5 2.9-.7 5.3-.7 7.3 0 1.8.3 3.2.6 4.2.4.8.8 1.2 1.4 1.3.8 0 1.8-.6 3-1.4 4-2.8 8.8-8.9 12.4-14.6.2-.4.6-.6.9-.6.2 0 .5.1.6.2.4.2.6.6.6.9l-.1.6c-3.7 6-8.9 12.5-13.1 15.4-1 .8-2 1.3-3 1.6-.1.2-.4.3-.6.3l-.9.1c-2.9 0-4.1-2-4.5-5.2l-.2-2.5c0-2.9.5-6.1.8-8.9.3-1.8.5-3.5.6-4.7l.1-1.3c0-.6-.1-.8-.3-.8-.3 0-.7.6-1.4 1.6-1.6 2.4-3.6 6-5.8 9.7-1.9 2.9-9.1 16.8-13.3 16.8z"/><path class="st0" d="M174.2 68.5c0-9.8 1.5-20.8 3.6-30.6-1.9 4.7-4 9.4-6 13.5-2.3 4.7-8.5 17.1-13.5 17.1-3.8 0-4.6-4.5-4.6-10.3.2-3.6.7-7.5 1.4-10.4-.4-.2-.6-.6-.6-.9 0-.2 0-.5.2-.6 1.3-2.7 1.7-3.1 2.9-3.3.7 0 1.4.7 1.4 1.7-.8 4.6-1.4 9.3-1.4 13.1 0 4.6.6 7.5 2 7.5 3.3-.6 8.7-12.1 10.1-14.8 3.8-7.7 7.5-17 10.5-25.2-9.9 1-18.6 2.3-27.3 2.7-1.3.6-2.6.7-3.6.7-2.8 0-4.2-1-4.2-2.1 0-.7.6-1.6 3.2-1.6.2 0 4.7.5 4.9.6 9.5-.4 16-1.4 27.9-2.8.9-2.6 1.6-5.5 2.6-8.3 1.1-3.1 2.5-7.1 4.5-7.7l.2-.1h.5s1.2.3 1.2 1.9c0 .6-.2 1.4-.6 2.2-1.9 4.2-2.8 6.8-4 11.5 6.8-.6 13.6-1.2 19.9-1.2 8 0 15.2.8 20.5 3.4.4.2.6.6.6 1-.2.8-.4 1.2-1.2 1.2l-.6-.1c-5-2.4-11.8-3.2-19.5-3.2-6.3 0-13.3.6-20.3 1.3-4.6 17.9-6.4 35.1-6.4 47.1 0 10.1 1.3 16.9 3.8 17.8.5.2.7.6.7 1.2-.1.7-.4.9-1.1 1.2l-1.2.2c-4.5-.1-6.5-6.7-6.5-23.7zm-16-31.4c-.6-.2-1-.6-1-1.2.2-.9.6-1.2.9-1.5l-.1-.5c0-.7.6-1.2 1.2-1.2 1.1 0 1.5 1.6 1.5 2.1 0 .7-.6 1-1.1 1.4-.3.5-.7.8-1.2.8l-.2.1z"/><path class="st0" d="M185.3 51.5c.1-.6.6-1.1 1.3-1.1.7 0 1.3.1 1.9.1.8-1.3 1.8-2.8 3.1-4.2 1.7-2 3.5-2.9 4.9-2.9.3 0 .5.1.6.1 1.5.2 2.5 1.1 2.9 2.4.1.3.1.6.1.8 0 1-.4 2-1.3 3-1.2 1.4-3.5 2.6-7.2 2.9-.3.6-.6 1.3-.7 1.8-.4.8-.5 1.7-.5 2.4v.6c.2.8.6 1.6 1.4 2 .7.6 1.9.8 3.5.9 2.7 0 6.3-.9 10.9-2.9l.1-.1c4.4-2.2 8.9-5.5 13.2-9.9.3-.3.6-.4.9-.4s.6.1.7.3c.3.3.4.6.4.9s-.1.6-.3.8c-4.4 4.5-9.2 8-13.8 10.4 0 0-.1.1-.2.1l-.1.1c-4.6 2.3-8.9 3.5-12.4 3.8h-.6c-2 0-3.8-.4-5.1-1-1.7-.9-2.8-2.2-3-4.1v-.7c0-1.4.4-2.9 1.2-4.8h-.8c-.6-.1-1.1-.6-1.1-1.3zm11.8-3.3c.4-.4.7-1 .7-1.5 0-.2-.1-.4-.4-.4-.2 0-.5.2-.9.5-1.1.8-2.8 2.6-2.9 2.9-.2.1-.2.3-.3.4 1.9-.4 3.1-1.1 3.8-1.9z"/><path class="st0" d="M250.9 87.7c-1.1-3.6-1.7-9.6-1.7-18.5 0-10.5 1.7-22.1 4-32.3l1.7-7.2c-10.8 19-20.6 29.2-27.6 33.1-1.2.7-2.3 1.2-3.3 1.6h-.1c-1.2.4-2.2.6-3.1.6h-.6c-2.1-.2-3.7-1.2-4.6-3-.5-1-.7-2.2-.7-3.6 0-2.3.6-5.1 2.1-8.3 1.7-3.9 5.3-7.6 8.6-9.3 1.1-.5 2.2-.8 3.3-.8h.4c1.3.1 2.4.6 3.1 1.7s1.2 2.7 1.2 4.9c0 .8-.1 1.7-.2 2.7-.1.5-.4.7-.6.9-.5.2-.8.4-1.1.4l-.6-.2c-.5-.2-.7-.6-.8-1.1-.1-.3-.1-.6-.1-.8 0-1 .6-2.3 1.1-2.5v-.1c0-1.3-.3-2.2-.7-2.8-.2-.3-.4-.5-.6-.6h-.1c-2.8 0-6.6 4.8-8.8 9.7-.9 1.9-1.6 3.8-1.7 5.4l-.1 1.4c0 .8.1 1.7.5 2.2.5.7 1.3 1 2.1 1 1.6 0 3.2-.8 4.3-1.4 7.2-4.1 17.6-15.2 29-36.2l-6.9.8c-7.8.9-15.4 1.7-22 2-1.4.6-2.7.7-3.8.7-.9 0-1.7-.1-2.3-.3-.6-.3-1-.5-1.3-.8-.4-.4-.5-.6-.5-1s.2-.8.8-1.1c.3-.2.9-.4 1.7-.4h.6l4.8.5c6.5-.3 13.9-1.1 21.5-2l8.6-.9L258 19c.4-1.7.8-3.5 1.5-5.2.7-2.1 1.7-4 2.3-5.2.5-.6.8-1 1.1-1.3l.7-.2c.4 0 .7.3 1.1.7.1.3.2.6.2.9v.5c0 .1 0 .3-.1.5-.1.6-.3 1.2-.5 1.7l-.1.1c-.6 1.2-1.1 2.3-1.6 3.5-.7 2.2-1.4 4.4-2 6.6 6.2-.6 12.2-1 17.8-1 8 0 15.1.8 20.4 3.4.4.2.6.6.6 1 0 .2-.1.4-.1.6-.3.5-.6.6-1 .6-.2 0-.4 0-.6-.1-4.9-2.3-11.6-3.1-19.1-3.1-5.9 0-12.2.5-18.8 1.1-3.4 13.2-5.4 26.2-6.2 37.2-.4 4-.6 7.9-.6 11.3 0 10 1.4 16.7 3.8 17.6.5.2.8.6.8 1.1l-.1.5c-.1.4-.5.6-.8.7h-.1c-.6.2-1 .2-1.5.2-1.6-.1-3.2-1.5-4.2-5z"/><path class="st0" d="M265 66.4c-.9-1.1-1.3-2.9-1.3-5v-.6c0-2.9.6-6.3 1.5-9.5-.2-.2-.3-.5-.3-.7v-.4c.4-1.8.9-3.1 1.7-4.1.6-.8 1.2-1.4 2-1.9.5-.5 1-.6 1.5-.6h.4c.6.1 1 .4 1.3.7s.5.7.5 1.2v.3c0 .6-.4 1.3-1.3 1.7-.6.9-1.6 3.7-2.4 6.8-.6 2.2-.9 4.8-1 6.8v1.2c0 1.4.1 2.5.6 2.9.1 0 .1 0 .1.1l.6-.2c2.9-1.1 7.5-5.5 14.7-15.5.6-.8 1.4-1.7 2.3-1.7.4 0 .6.1 1 .4.8.6 1.2 2 1.7 3.7.4 1.5.8 3.1 1.6 4.6 1 2.1 2.6 4 5.3 4 1.3 0 2.7-.4 4.4-1.2.1-.1.2-.1.3-.1 3.6-2 8.3-5.8 14.5-12.2.3-.3.6-.4.8-.4s.6.1.8.4c.3.2.4.6.4.8s-.1.6-.4.8c-6.3 6.5-11.2 10.5-15.2 12.6l-1.2.6c-2.1 1-4 1.4-5.5 1.4-2 0-3.7-.7-4.9-1.9-2.3-2.2-3.2-5.8-4-8.4-.1-.6-.3-1.2-.4-1.7-7.5 10.2-12.4 14.8-15.5 16-.6.3-1.3.4-1.8.4-1.2.2-2.1-.5-2.8-1.3z"/><path class="st0" d="M313.6 65.7c-.1-1.2-.1-3-.1-5.2 0-3 .1-6.6.3-9.9l.4-4.3c-.4-.2-.6-.6-.6-1.1V45c.4-2.4 1.4-3.9 2.3-4.4.4-.2.7-.4 1.1-.4.5 0 .9.1 1.3.5s.6.8.6 1.3l-.1.6c-.7 3.8-1.3 8.4-1.6 12.4 0 .4 0 .6-.1.9 1.1-2.7 2.5-5.4 4.1-7.7 2.7-3.7 6-6.3 9.6-6.3h.6c.5 0 .9.1 1.4.2.6.2.9.6.9 1.1l-.1.4c-.1.6-.6.9-1.1.9l-1.3-.3h-.3c-2.9 0-5.5 2.1-7.8 5.3-2.4 3.5-4.3 8-5.3 11.9-.5 1.6-.7 3-.8 4.3-.1.8-.8 1.3-1.6 1.3-.8.1-1.7-.4-1.8-1.3zM329 51.5c.1-.6.6-1.1 1.3-1.1s1.3.1 1.9.1c.8-1.3 1.8-2.8 3.1-4.2 1.7-2 3.5-2.9 4.9-2.9.3 0 .5.1.6.1 1.5.2 2.5 1.1 2.9 2.4.1.3.1.6.1.8 0 1-.4 2-1.3 3-1.2 1.4-3.5 2.6-7.2 2.9-.3.6-.6 1.3-.7 1.8-.4.8-.5 1.7-.5 2.4v.6c.2.8.6 1.6 1.4 2 .7.6 1.9.8 3.5.9 2.7 0 6.3-.9 10.9-2.9l.1-.1c4.4-2.2 8.9-5.5 13.2-9.9.3-.3.6-.4.9-.4s.6.1.7.3c.3.3.4.6.4.9s-.1.6-.3.8c-4.4 4.5-9.2 8-13.8 10.4 0 0-.1.1-.2.1l-.1.1c-4.6 2.3-8.9 3.5-12.4 3.8h-.6c-2 0-3.8-.4-5.1-1-1.7-.9-2.8-2.2-3-4.1v-.7c0-1.4.4-2.9 1.2-4.8h-.8c-.6-.1-1.1-.6-1.1-1.3zm11.8-3.3c.4-.4.7-1 .7-1.5 0-.2-.1-.4-.4-.4-.2 0-.5.2-.9.5-1.1.8-2.8 2.6-2.9 2.9-.2.1-.2.3-.3.4 1.9-.4 3.1-1.1 3.8-1.9z"/></svg>